<svg width="44" height="44" viewBox="0 0 44 44" fill="none" xmlns="http://www.w3.org/2000/svg">
<path d="M28.8764 29.702C29.8781 29.702 30.8559 29.8157 31.7861 30.0431C31.8767 30.0668 31.9769 30.0858 32.0675 30.1142C33.2791 30.4174 34.6958 30.9054 35.7356 31.5402V24.0548H35.7404V20.2222H35.7356V15.9441C35.7356 8.67196 29.7731 2.75 22.4511 2.75C15.1292 2.75 9.1714 8.68143 9.1714 15.9536V24.775C9.66271 24.1875 10.1731 23.619 10.7169 23.0789C11.3847 22.4156 12.0906 21.795 12.8395 21.2265V15.9536C12.8395 10.6854 17.1516 6.4074 22.4511 6.4074C27.7506 6.4074 32.0627 10.6902 32.0627 15.9536V26.3715C31.9721 26.3526 31.8719 26.3336 31.7813 26.3147C30.8416 26.1441 29.859 26.0541 28.8716 26.0541C20.8866 26.0541 14.2181 31.7818 12.8348 39.3335V31.7534C12.8348 31.7534 12.8395 31.7487 12.8395 31.7392C15.5298 27.6317 19.7513 24.6044 24.6835 23.4437C25.8712 23.1642 27.0924 22.9936 28.3517 22.9463V19.2936V16.091C28.3517 12.86 25.7043 10.2306 22.4511 10.2306C19.198 10.2306 16.5506 12.86 16.5506 16.091V18.9667C17.1135 18.6351 17.7861 18.2845 18.5636 17.9718C19.1551 17.7349 19.7131 17.5549 20.2188 17.4223V16.091C20.2188 14.8687 21.2205 13.8738 22.4511 13.8738C23.6818 13.8738 24.6835 14.8687 24.6835 16.091V19.7105C20.1091 20.6059 16.0211 22.8373 12.8395 25.983C11.4228 27.3901 10.1874 28.9772 9.1714 30.7017V31.6729C9.1714 31.6729 9.16663 31.6776 9.16663 31.6871V43.8768H16.3455C16.274 43.3462 16.2358 42.8014 16.2358 42.2566C16.2358 41.5649 16.293 40.8922 16.4027 40.2336C17.3758 34.2643 22.599 29.702 28.8716 29.702H28.8764Z" fill="url(#paint0_linear_8418_225)"/>
<path d="M35.7357 35.392C34.7101 34.4208 33.4604 33.677 32.0723 33.2316H32.0675C31.1517 32.9379 30.1834 32.7816 29.1674 32.7816C28.5711 32.7816 27.9892 32.8384 27.4215 32.9474C26.4341 33.1227 25.504 33.4543 24.6549 33.9044C22.2413 35.2072 20.4478 37.5002 19.8515 40.2337C19.7036 40.8828 19.6273 41.565 19.6273 42.2567C19.6273 42.811 19.6798 43.3511 19.7752 43.8817H23.4481C23.3098 43.3842 23.2382 42.8631 23.2382 42.323C23.2382 39.2294 25.6328 36.6948 28.6808 36.4437C28.7333 36.4389 28.7905 36.4342 28.8478 36.4342C28.9527 36.4295 29.0624 36.4247 29.1721 36.4247C29.3105 36.4247 29.4488 36.4248 29.5824 36.439C29.7016 36.4484 29.8256 36.4579 29.9449 36.4769C30.1357 36.5005 30.3169 36.5337 30.503 36.5764C30.5173 36.5764 30.5268 36.5811 30.5411 36.5858C31.0849 36.7138 31.6001 36.9222 32.0723 37.1875V40.0822C32.535 40.2859 32.9118 40.4754 33.1837 40.6175C33.718 40.897 34.2999 41.205 34.982 41.7071C35.3207 41.9535 35.5783 42.1809 35.75 42.3325C35.75 40.0206 35.7452 37.7039 35.7405 35.392H35.7357Z" fill="url(#paint1_linear_8418_225)"/>
<path d="M28.7047 40.1154C27.6267 40.1154 26.749 40.9871 26.749 42.0578C26.749 43.1285 27.6267 44.0002 28.7047 44.0002C29.7828 44.0002 30.6604 43.1285 30.6604 42.0578C30.6604 40.9871 29.7828 40.1154 28.7047 40.1154Z" fill="white"/>
<defs>
<linearGradient id="paint0_linear_8418_225" x1="9.16663" y1="2.75" x2="46.6605" y2="26.9764" gradientUnits="userSpaceOnUse">
<stop stop-color="#0CA0EB"/>
<stop offset="1" stop-color="#0165A3"/>
</linearGradient>
<linearGradient id="paint1_linear_8418_225" x1="19.6273" y1="32.7816" x2="29.9966" y2="47.8427" gradientUnits="userSpaceOnUse">
<stop stop-color="#0CA0EB"/>
<stop offset="1" stop-color="#0165A3"/>
</linearGradient>
</defs>
</svg>
