<svg width="29" height="45" viewBox="0 0 29 45" fill="none" xmlns="http://www.w3.org/2000/svg">
<path d="M21.5015 29.4022C22.5943 29.4022 23.661 29.5262 24.6758 29.7743C24.7746 29.8002 24.8839 29.8208 24.9828 29.8518C26.3045 30.1826 27.85 30.7149 28.9844 31.4075V23.2417H28.9896V19.0605H28.9844V14.3936C28.9844 6.46032 22.4798 0 14.4922 0C6.50458 0 0.00520366 6.47065 0.00520366 14.4039V24.0272C0.541181 23.3864 1.09797 22.7662 1.69119 22.177C2.4197 21.4534 3.18984 20.7764 4.00682 20.1562V14.4039C4.00682 8.65683 8.71093 3.98989 14.4922 3.98989C20.2735 3.98989 24.9776 8.662 24.9776 14.4039V25.7689C24.8787 25.7482 24.7694 25.7276 24.6706 25.7069C23.6454 25.5208 22.5735 25.4227 21.4963 25.4227C12.7854 25.4227 5.51068 31.6711 4.00161 39.9093V31.6401C4.00161 31.6401 4.00682 31.6349 4.00682 31.6246C6.94168 27.1437 11.5469 23.8412 16.9275 22.5749C18.2232 22.27 19.5554 22.084 20.9291 22.0323V18.0475V14.5538C20.9291 11.0291 18.0411 8.16067 14.4922 8.16067C10.9433 8.16067 8.05527 11.0291 8.05527 14.5538V17.6909C8.6693 17.3292 9.40301 16.9467 10.2512 16.6056C10.8965 16.3472 11.5053 16.1508 12.0569 16.0061V14.5538C12.0569 13.2204 13.1496 12.1351 14.4922 12.1351C15.8347 12.1351 16.9275 13.2204 16.9275 14.5538V18.5024C11.9372 19.4792 7.47766 21.9134 4.00682 25.3451C2.46133 26.8801 1.11358 28.6115 0.00520366 30.4927V31.5522C0.00520366 31.5522 0 31.5574 0 31.5677V44.8656H7.83151C7.75345 44.2868 7.71182 43.6924 7.71182 43.0981C7.71182 42.3435 7.77427 41.6096 7.89395 40.8912C8.9555 34.3792 14.6535 29.4022 21.4963 29.4022H21.5015Z" fill="url(#paint0_linear_8575_264)"/>
<path d="M28.9844 35.6094C27.8656 34.5499 26.5022 33.7385 24.988 33.2527H24.9828C23.9837 32.9323 22.9273 32.7617 21.8189 32.7617C21.1685 32.7617 20.5336 32.8238 19.9144 32.9426C18.8372 33.1339 17.8225 33.4956 16.8963 33.9866C14.2632 35.4079 12.3067 37.9093 11.6562 40.8914C11.4949 41.5994 11.4116 42.3437 11.4116 43.0982C11.4116 43.7029 11.4689 44.2921 11.5729 44.8709H15.5798C15.4288 44.3283 15.3508 43.7598 15.3508 43.1706C15.3508 39.7957 17.963 37.0307 21.2882 36.7568C21.3454 36.7516 21.4079 36.7465 21.4703 36.7465C21.5848 36.7413 21.7045 36.7361 21.8241 36.7361C21.9751 36.7361 22.126 36.7361 22.2717 36.7516C22.4018 36.762 22.537 36.7723 22.6671 36.793C22.8753 36.8188 23.073 36.855 23.276 36.9015C23.2916 36.9015 23.302 36.9067 23.3176 36.9118C23.9108 37.0514 24.4728 37.2788 24.988 37.5682V40.726C25.4927 40.9483 25.9038 41.155 26.2004 41.31C26.7832 41.6149 27.4181 41.9509 28.1622 42.4987C28.5317 42.7675 28.8127 43.0156 29 43.1809C29 40.6588 28.9948 38.1315 28.9896 35.6094H28.9844Z" fill="url(#paint1_linear_8575_264)"/>
<path d="M21.3143 40.7622C20.1383 40.7622 19.1808 41.7132 19.1808 42.8812C19.1808 44.0492 20.1383 45.0002 21.3143 45.0002C22.4903 45.0002 23.4478 44.0492 23.4478 42.8812C23.4478 41.7132 22.4903 40.7622 21.3143 40.7622Z" fill="white"/>
<defs>
<linearGradient id="paint0_linear_8575_264" x1="0" y1="0" x2="40.9024" y2="26.4288" gradientUnits="userSpaceOnUse">
<stop stop-color="#0CA0EB"/>
<stop offset="1" stop-color="#0165A3"/>
</linearGradient>
<linearGradient id="paint1_linear_8575_264" x1="11.4116" y1="32.7617" x2="22.7236" y2="49.1921" gradientUnits="userSpaceOnUse">
<stop stop-color="#0CA0EB"/>
<stop offset="1" stop-color="#0165A3"/>
</linearGradient>
</defs>
</svg>
